
<svg width="36px" height="30px" viewBox="0 0 36 30" version="1.1" xmlns="http://www.w3.org/2000/svg" xmlns:xlink="http://www.w3.org/1999/xlink">
    <!-- Generator: Sketch 43.2 (39069) - http://www.bohemiancoding.com/sketch -->
    <desc>Created with Sketch.</desc>
    <defs></defs>
    <g id="Page-1" stroke="none" stroke-width="1" fill="none" fill-rule="evenodd">
        <g id="main-screen" transform="translate(-142.000000, -56.000000)" fill="#000000">
            <path d="M174.625,61.125 C175.750006,61.125 176.593747,61.5468708 177.15625,62.390625 C177.718753,63.2343792 178,63.9374972 178,64.5 L178,82.5351562 C178,83.4257857 177.630863,84.2050748 176.892578,84.8730469 C176.154293,85.541019 175.421879,85.875 174.695312,85.875 L145.128906,85.875 C144.40234,85.875 143.699222,85.5468783 143.019531,84.890625 C142.33984,84.2343717 142,83.4375047 142,82.5 L142,64.4648438 C142,63.3632757 142.421871,62.5312528 143.265625,61.96875 C144.109379,61.4062472 144.812497,61.125 145.375,61.125 L150.542969,61.125 L153.25,56.625 L166.75,56.625 L169.457031,61.125 L174.625,61.125 Z M175.75,82.5351562 L175.75,64.5 C175.75,64.4531248 175.66211,64.253908 175.486328,63.9023438 C175.310546,63.5507795 175.023439,63.375 174.625,63.375 L168.191406,63.375 L167.558594,62.2851562 L165.554688,58.875 L154.515625,58.875 L151.808594,63.375 L145.375,63.375 C145.28125,63.375 145.070314,63.4687491 144.742188,63.65625 C144.414061,63.8437509 144.25,64.1132795 144.25,64.4648438 L144.25,82.5 C144.25,82.804689 144.367186,83.0683583 144.601562,83.2910156 C144.835939,83.513673 145.023437,83.625 145.164062,83.625 L174.695312,83.625 C174.859376,83.6015624 175.076171,83.4667981 175.345703,83.2207031 C175.615236,82.9746081 175.75,82.7460948 175.75,82.5351562 Z M160,64.5 C161.07813,64.5 162.097651,64.7050761 163.058594,65.1152344 C164.019536,65.5253927 164.857418,66.0878871 165.572266,66.8027344 C166.287113,67.5175817 166.849607,68.3554639 167.259766,69.3164062 C167.669924,70.2773486 167.875,71.2968696 167.875,72.375 C167.875,73.4531304 167.669924,74.4726514 167.259766,75.4335938 C166.849607,76.3945361 166.287113,77.2324183 165.572266,77.9472656 C164.857418,78.6621129 164.019536,79.2246073 163.058594,79.6347656 C162.097651,80.0449239 161.07813,80.25 160,80.25 C158.92187,80.25 157.902349,80.0449239 156.941406,79.6347656 C155.980464,79.2246073 155.142582,78.6621129 154.427734,77.9472656 C153.712887,77.2324183 153.150393,76.3945361 152.740234,75.4335938 C152.330076,74.4726514 152.125,73.4531304 152.125,72.375 C152.125,71.2968696 152.330076,70.2773486 152.740234,69.3164062 C153.150393,68.3554639 153.712887,67.5175817 154.427734,66.8027344 C155.142582,66.0878871 155.980464,65.5253927 156.941406,65.1152344 C157.902349,64.7050761 158.92187,64.5 160,64.5 Z M160,78 C161.546883,78 162.871088,77.4492243 163.972656,76.3476562 C165.074224,75.2460882 165.625,73.9218827 165.625,72.375 C165.625,70.8281173 165.074224,69.5039118 163.972656,68.4023438 C162.871088,67.3007757 161.546883,66.75 160,66.75 C158.453117,66.75 157.128912,67.3007757 156.027344,68.4023438 C154.925776,69.5039118 154.375,70.8281173 154.375,72.375 C154.375,73.9218827 154.925776,75.2460882 156.027344,76.3476562 C157.128912,77.4492243 158.453117,78 160,78 Z" id="î¿"></path>
        </g>
    </g>
</svg>
